<?xml version="1.0" encoding="iso-8859-1"?>
<!-- Uploaded to: SVG Repo, www.svgrepo.com, Generator: SVG Repo Mixer Tools -->
<svg height="800px" width="800px" version="1.1" id="Layer_1" xmlns="http://www.w3.org/2000/svg" xmlns:xlink="http://www.w3.org/1999/xlink" 
	 viewBox="0 0 512.006 512.006" xml:space="preserve">
<g>
	<path style="fill:#CFF09E;" d="M186.017,353.378c-29.488,26.745-73.86,35.613-98.189,50.076
		c-41.847-39.011-68.732-93.856-71.086-154.998c14.619-5.455,28.802-12.172,36.797-19.762c21.305-20.261,37.92-27.01,52.476,0
		c14.541,27.01,21.29,50.918,46.757,55.064C178.225,287.919,224.981,318.046,186.017,353.378z"/>
	<path style="fill:#CFF09E;" d="M252.599,224.327c-3.345,28.316-1.429,56.585,23.581,77.326c0.36,0.299,0.686,0.617,1.019,0.932
		c3.79-4.877,7.892-9.563,12.341-14.011c24.128-24.128,55.246-38.188,85.948-46.233c-15.185-17.953-31.131-85.504-84.718-58.26
		c-11.215,5.703-15.277-75.512-12.861-78.601c23.087-30.03,42.361-43.114,77.664-55.224c0.946-0.338,1.699-0.868,2.492-1.4
		C323.89,27.776,283.681,15.59,240.567,15.59c-47.374,0-91.28,14.745-127.49,39.871c0.193,0.87,0.454,1.767,0.831,2.598
		c15.275,32.937,34.965,88.836,68.539,101.699C198.737,166.014,257.451,183.236,252.599,224.327z"/>
</g>
<g>
	<path style="fill:#507C5C;" d="M291.578,309.563c1.231-1.507,2.494-2.994,3.794-4.453c0.284-0.32,0.574-0.631,0.86-0.946
		c1.407-1.549,2.84-3.08,4.328-4.57c1.125-1.125,2.28-2.23,3.455-3.32c0.358-0.334,0.725-0.655,1.086-0.983
		c0.832-0.756,1.672-1.507,2.53-2.246c0.424-0.366,0.853-0.726,1.28-1.086c0.835-0.703,1.682-1.398,2.539-2.087
		c0.422-0.34,0.845-0.68,1.272-1.013c0.969-0.759,1.954-1.504,2.95-2.243c0.315-0.234,0.627-0.474,0.943-0.704
		c1.315-0.959,2.651-1.9,4.013-2.823c0.279-0.19,0.564-0.369,0.845-0.558c1.077-0.72,2.165-1.431,3.27-2.129
		c0.492-0.312,0.988-0.616,1.484-0.921c0.924-0.57,1.859-1.133,2.804-1.688c0.538-0.316,1.075-0.634,1.618-0.944
		c1.041-0.597,2.099-1.181,3.164-1.761c0.697-0.379,1.393-0.753,2.093-1.121c1.066-0.561,2.141-1.116,3.231-1.66
		c0.757-0.377,1.518-0.745,2.28-1.111c0.704-0.34,1.414-0.675,2.127-1.007c0.86-0.401,1.722-0.8,2.589-1.186
		c0.502-0.224,1.012-0.441,1.516-0.661c1.979-0.862,3.968-1.694,5.971-2.489c0.24-0.095,0.478-0.193,0.72-0.288
		c1.211-0.475,2.427-0.938,3.644-1.389c0.122-0.045,0.245-0.089,0.366-0.134c63.061-23.221,134.014-14.635,135.1-14.496
		c8.527,1.102,16.345-4.914,17.454-13.447c1.11-8.536-4.911-16.355-13.447-17.465c-1.183-0.154-7.846-0.977-18.346-1.537
		C472.143,142.45,430.715,75.372,366.253,35.59c-0.031-0.019-0.061-0.037-0.09-0.056c-0.129-0.079-0.277-0.167-0.439-0.262
		c-0.884-0.552-1.783-1.089-2.721-1.647c-0.192-0.12-0.391-0.24-0.608-0.368c-0.047-0.028-0.094-0.056-0.14-0.083
		c-0.963-0.561-1.928-1.124-2.943-1.707c-1.164-0.666-2.33-1.315-3.519-1.968c-1.03-0.566-2.06-1.119-3.091-1.671
		c-0.204-0.117-0.413-0.229-0.622-0.338l-0.871-0.449c-0.853-0.44-1.699-0.876-2.555-1.305c-3.507-1.799-7.222-3.563-10.971-5.21
		c-1.231-0.549-2.463-1.082-3.709-1.615c-0.011-0.005-0.022-0.009-0.033-0.014c-0.039-0.017-0.079-0.034-0.118-0.051
		c-7.614-3.218-15.331-6.027-22.898-8.334c-1.292-0.397-2.6-0.779-3.892-1.156c-2.257-0.659-4.462-1.262-6.557-1.791
		c-0.614-0.164-1.23-0.315-1.884-0.475c-1.186-0.295-2.371-0.577-3.536-0.851c-1.376-0.326-2.77-0.636-4.11-0.918l-0.282-0.061
		c-1.102-0.237-2.193-0.469-3.296-0.675l-2.143-0.424c-1.435-0.274-2.89-0.53-4.21-0.748c-2.294-0.397-4.588-0.748-6.883-1.082
		c-0.058-0.008-0.117-0.017-0.175-0.025l-0.393-0.053c-1.097-0.147-2.182-0.291-3.259-0.422c-1.459-0.178-2.914-0.34-4.375-0.503
		c-0.069-0.008-0.137-0.014-0.206-0.022l-2.489-0.242c-2.911-0.268-5.572-0.474-8.009-0.62c-0.803-0.055-1.607-0.094-2.487-0.132
		c-0.949-0.047-1.901-0.092-2.863-0.125c-0.143-0.008-0.284-0.008-0.425-0.014c-0.397-0.014-0.795-0.026-1.192-0.041
		c-0.497-0.016-0.997-0.042-1.493-0.05c-0.084-0.002-0.168-0.002-0.254-0.002c-0.851-0.031-1.704-0.047-2.463-0.047
		c-0.954-0.014-1.915-0.02-2.876-0.023c-0.203,0-0.405-0.011-0.608-0.011c-0.14,0-0.279,0.008-0.421,0.008
		c-1.398,0.002-2.776,0.014-4.083,0.044c-0.859,0.014-1.702,0.056-2.554,0.081c-1.068,0.031-2.137,0.056-3.203,0.101
		c-0.134,0.006-0.271,0.006-0.405,0.012c-1.156,0.036-2.313,0.103-3.476,0.171c-1.262,0.075-2.52,0.162-3.77,0.249
		c-0.195,0.014-0.39,0.026-0.584,0.042c-0.055,0.005-0.109,0.008-0.162,0.014c-0.083,0.006-0.164,0.012-0.248,0.02
		c-1.308,0.097-2.601,0.218-3.909,0.343c-0.341,0.026-0.683,0.058-1.021,0.097c-0.979,0.092-1.959,0.199-2.938,0.31
		c-0.351,0.039-0.701,0.078-1.05,0.118c-0.162,0.019-0.315,0.036-0.489,0.059c-2.727,0.313-5.245,0.65-7.676,1.026
		c-0.252,0.037-0.505,0.078-0.757,0.117l0.033-0.006c-0.243,0.034-0.488,0.072-0.726,0.112c-2.067,0.324-4.124,0.683-6.181,1.061
		l-0.703,0.134c-0.718,0.134-1.435,0.277-2.152,0.418c-1.216,0.24-2.444,0.488-3.753,0.767l-1.255,0.27
		c-0.352,0.078-0.701,0.165-1.054,0.243c-1.06,0.237-2.117,0.483-3.172,0.734c-0.538,0.128-1.08,0.243-1.616,0.374
		c-0.07,0.017-0.175,0.042-0.221,0.055c-1.608,0.397-3.214,0.81-4.811,1.242c-0.555,0.15-1.107,0.312-1.661,0.466
		c-2.076,0.575-4.144,1.18-6.201,1.811c-0.742,0.228-1.484,0.455-2.223,0.689c-2,0.636-3.988,1.303-5.969,1.992
		c-0.851,0.295-1.704,0.586-2.551,0.891c-1.948,0.703-3.885,1.437-5.813,2.19c-1.038,0.404-2.073,0.812-3.105,1.231
		c-1.789,0.728-3.569,1.476-5.34,2.246c-1.136,0.494-2.269,1.001-3.398,1.512c-1.535,0.697-3.064,1.407-4.584,2.137
		c-1.298,0.622-2.589,1.259-3.878,1.905c-1.231,0.617-2.455,1.247-3.674,1.886c-1.467,0.768-2.927,1.549-4.38,2.349
		c-1.311,0.72-2.614,1.454-3.91,2.198c-1.186,0.681-2.367,1.37-3.543,2.073c-1.591,0.949-3.17,1.919-4.74,2.905
		c-0.683,0.43-1.368,0.851-2.046,1.287c-2.034,1.308-4.044,2.656-6.039,4.024c-0.318,0.218-0.644,0.421-0.96,0.641
		c-0.109,0.076-0.21,0.161-0.318,0.238C84.707,56.222,67.429,72.334,52.799,90.765C18.892,133.482,0.97,184.949,0.97,239.602
		c0,3.022,0.059,6.105,0.181,9.425c0.009,0.262,0.026,0.522,0.047,0.779c0.042,0.994,0.106,1.984,0.161,2.977
		c0.045,0.843,0.081,1.688,0.136,2.528c0.072,1.114,0.164,2.224,0.251,3.337c0.067,0.854,0.125,1.711,0.199,2.564
		c0.098,1.096,0.215,2.187,0.327,3.279c0.089,0.865,0.168,1.732,0.267,2.595c0.122,1.066,0.262,2.127,0.397,3.189
		c0.112,0.885,0.215,1.772,0.338,2.654c0.143,1.035,0.305,2.065,0.463,3.097c0.137,0.902,0.265,1.806,0.411,2.706
		c0.165,1.018,0.352,2.031,0.531,3.045c0.161,0.907,0.312,1.816,0.482,2.718c0.187,0.991,0.393,1.978,0.592,2.967
		c0.185,0.921,0.363,1.845,0.56,2.763c0.206,0.963,0.432,1.92,0.65,2.88c0.212,0.935,0.416,1.872,0.639,2.804
		c0.226,0.946,0.472,1.884,0.711,2.827c0.237,0.938,0.464,1.878,0.714,2.813c0.246,0.929,0.513,1.85,0.77,2.774
		c0.262,0.941,0.516,1.884,0.79,2.823c0.265,0.91,0.55,1.814,0.828,2.72c0.288,0.943,0.567,1.887,0.865,2.826
		c0.285,0.895,0.589,1.785,0.885,2.676c0.312,0.941,0.617,1.887,0.941,2.824c0.304,0.877,0.625,1.747,0.938,2.62
		c0.338,0.943,0.669,1.891,1.019,2.829c0.321,0.86,0.661,1.713,0.993,2.568c0.365,0.943,0.722,1.889,1.097,2.826
		c0.341,0.851,0.701,1.693,1.054,2.539c0.388,0.934,0.767,1.87,1.166,2.798c0.362,0.84,0.742,1.672,1.114,2.509
		c0.411,0.926,0.814,1.855,1.236,2.774c0.376,0.818,0.771,1.627,1.156,2.442c0.44,0.929,0.871,1.861,1.323,2.784
		c0.396,0.81,0.812,1.61,1.217,2.416c0.461,0.915,0.913,1.834,1.387,2.743c0.422,0.81,0.862,1.612,1.294,2.419
		c0.478,0.895,0.949,1.794,1.44,2.682c0.446,0.809,0.91,1.607,1.367,2.411c0.496,0.874,0.983,1.753,1.492,2.623
		c0.472,0.809,0.963,1.607,1.446,2.411c0.513,0.853,1.015,1.711,1.538,2.558c0.494,0.801,1.008,1.591,1.513,2.388
		c0.531,0.839,1.054,1.682,1.596,2.514c0.508,0.779,1.035,1.549,1.554,2.324c0.56,0.837,1.11,1.679,1.68,2.509
		c0.524,0.762,1.066,1.513,1.599,2.271c0.584,0.829,1.16,1.663,1.753,2.486c0.549,0.759,1.116,1.506,1.674,2.258
		c0.6,0.809,1.191,1.624,1.802,2.425c0.563,0.74,1.146,1.468,1.718,2.202c0.627,0.803,1.244,1.612,1.881,2.408
		c0.569,0.711,1.155,1.409,1.733,2.113c0.661,0.806,1.312,1.618,1.982,2.416c0.574,0.681,1.164,1.351,1.746,2.026
		c0.695,0.809,1.382,1.622,2.09,2.424c0.542,0.614,1.102,1.216,1.651,1.825c0.767,0.849,1.526,1.705,2.305,2.545
		c0.455,0.489,0.924,0.969,1.382,1.456c0.893,0.946,1.78,1.895,2.688,2.829c0.22,0.226,0.446,0.444,0.667,0.669
		c2.54,2.589,5.14,5.135,7.81,7.626c0.005,0.005,0.009,0.008,0.014,0.011c38.799,36.179,88.347,58.329,140.848,63.257
		c0.56,10.512,1.384,17.186,1.538,18.369c0.913,7.013,6.434,12.534,13.447,13.446c1.822,0.237,16.652,2.067,38.507,2.067
		c47.472,0,128.08-8.638,180.43-60.985c27.669-27.669,46.213-66.276,55.117-114.751c1.555-8.466-4.046-16.589-12.512-18.145
		c-8.479-1.562-16.592,4.046-18.145,12.514c-7.743,42.14-23.388,75.227-46.503,98.341C376.572,482.361,283,482.083,249.46,480.07
		c-1.925-31.283-2.342-114.73,41.112-169.237C290.899,310.407,291.237,309.982,291.578,309.563z M276.597,279.509
		c-8.912-12.574-11.388-29.079-8.522-53.354c5.89-49.874-53.103-71.187-75.311-79.21c-1.825-0.659-3.423-1.234-4.743-1.742
		c-22.548-8.637-40.019-48.479-52.774-77.568c-0.932-2.124-1.844-4.205-2.738-6.23c16.184-9.852,33.495-17.375,51.53-22.454
		c0.195-0.055,0.391-0.111,0.588-0.165c2.059-0.574,4.127-1.114,6.205-1.624c0.661-0.162,1.323-0.305,1.986-0.46
		c1.462-0.343,2.925-0.68,4.397-0.99c0.849-0.181,1.705-0.348,2.559-0.516c1.325-0.263,2.653-0.517,3.984-0.756
		c0.873-0.156,1.747-0.304,2.623-0.45c3.973-0.656,7.969-1.205,11.988-1.632c0.435-0.045,0.868-0.097,1.303-0.137
		c1.968-0.196,3.943-0.363,5.923-0.503c0.48-0.033,0.963-0.064,1.448-0.095c1.771-0.114,3.544-0.203,5.321-0.271
		c0.499-0.02,0.993-0.044,1.498-0.059c2.102-0.067,4.21-0.103,6.321-0.108c0.405,0,0.818,0.002,1.234,0.005
		c1.152,0.005,2.304,0.019,3.454,0.044c0.231,0.005,0.461,0.003,0.69,0.014c0.217,0.009,0.433,0.014,0.65,0.014h0.002
		c1.347,0.036,2.69,0.089,4.034,0.151c0.324,0.016,0.653,0.026,0.976,0.042c0.005,0,0.03,0.002,0.047,0.002
		c1.557,0.079,3.111,0.178,4.665,0.291c0.137,0.011,0.268,0.017,0.407,0.028c22.484,1.697,44.467,7.012,65.132,15.715
		c-22.225,11.228-38.269,25.535-55.841,48.393c-2.936,3.756-5.709,7.302-2.84,43.655c1.838,23.269,4.883,39.402,9.054,47.952
		c5.29,10.844,13.425,12.465,17.81,12.465c0.002,0,0.005,0,0.006,0c2.843,0,5.594-0.667,8.175-1.979
		c6.134-3.117,11.67-4.699,16.458-4.699c15.163,0,25.565,17.373,36.642,38.361c0.279,0.528,0.555,1.052,0.829,1.571
		c-26.327,9.192-52.091,23.197-73.243,44.349c-0.019,0.019-0.036,0.037-0.053,0.055C277.84,278.236,277.216,278.869,276.597,279.509
		z M447.722,216.734c-18.955,0.542-41.676,2.583-65.227,7.797c-1.298-2.341-2.654-4.903-3.995-7.444
		c-11.555-21.896-29.016-54.984-64.209-54.984c-5.517,0-11.211,0.873-17.029,2.603c-2.928-15.12-4.861-42.269-4.476-52.958
		c18.684-23.556,34.536-34.816,63.774-45.32C407.901,100.843,441.056,155.734,447.722,216.734z M90.657,384.393
		c-1.055-1.089-2.101-2.185-3.13-3.295c-0.064-0.069-0.126-0.14-0.19-0.21c-1.03-1.113-2.046-2.237-3.05-3.37
		c-0.337-0.38-0.667-0.767-1.001-1.15c-0.725-0.829-1.445-1.66-2.154-2.5c-0.387-0.457-0.765-0.916-1.149-1.375
		c-0.65-0.782-1.295-1.566-1.933-2.357c-0.39-0.483-0.776-0.966-1.16-1.451c-0.623-0.787-1.241-1.579-1.852-2.374
		c-0.371-0.482-0.742-0.963-1.108-1.448c-0.633-0.837-1.255-1.68-1.873-2.526c-0.326-0.446-0.656-0.888-0.977-1.336
		c-0.736-1.022-1.457-2.051-2.173-3.084c-0.19-0.274-0.387-0.546-0.575-0.82c-0.899-1.312-1.781-2.632-2.65-3.963
		c-0.226-0.346-0.443-0.697-0.665-1.043c-0.634-0.987-1.266-1.976-1.883-2.972c-0.307-0.496-0.606-0.994-0.909-1.492
		c-0.522-0.859-1.041-1.719-1.549-2.584c-0.323-0.547-0.639-1.099-0.957-1.649c-0.477-0.828-0.948-1.658-1.414-2.492
		c-0.315-0.566-0.63-1.133-0.94-1.702c-0.461-0.845-0.913-1.694-1.362-2.545c-0.291-0.553-0.584-1.105-0.871-1.661
		c-0.475-0.923-0.94-1.852-1.401-2.78c-0.242-0.486-0.488-0.971-0.726-1.459c-0.651-1.337-1.289-2.682-1.911-4.034
		c-0.076-0.165-0.151-0.332-0.228-0.497c-0.611-1.339-1.208-2.684-1.791-4.035c-0.22-0.511-0.432-1.027-0.648-1.541
		c-0.396-0.94-0.79-1.88-1.172-2.826c-0.242-0.597-0.475-1.195-0.711-1.794c-0.344-0.876-0.686-1.753-1.018-2.634
		c-0.235-0.625-0.468-1.25-0.697-1.876c-0.32-0.87-0.631-1.742-0.938-2.617c-0.22-0.627-0.44-1.255-0.655-1.884
		c-0.309-0.907-0.606-1.816-0.902-2.727c-0.193-0.595-0.391-1.191-0.58-1.789c-0.327-1.043-0.642-2.092-0.955-3.14
		c-0.139-0.468-0.285-0.934-0.421-1.401c-0.435-1.501-0.853-3.006-1.253-4.517c-0.114-0.432-0.22-0.868-0.33-1.301
		c-0.285-1.102-0.566-2.204-0.832-3.312c-0.145-0.6-0.279-1.203-0.419-1.805c-0.22-0.951-0.436-1.901-0.644-2.857
		c-0.14-0.647-0.274-1.297-0.407-1.945c-0.19-0.92-0.374-1.841-0.552-2.763c-0.126-0.661-0.251-1.322-0.372-1.984
		c-0.17-0.934-0.332-1.87-0.489-2.807c-0.109-0.645-0.218-1.289-0.321-1.936c-0.159-1.004-0.305-2.009-0.45-3.016
		c-0.083-0.578-0.171-1.156-0.249-1.736c-0.179-1.329-0.343-2.664-0.497-3.999c-0.03-0.259-0.065-0.516-0.095-0.775
		c-0.165-1.484-0.31-2.972-0.444-4.464c14.046-5.999,24.324-12.174,31.258-18.754c13.196-12.549,18.52-13.525,19.839-13.525
		c1.202,0,4.372,2.564,8.175,9.618c2.492,4.629,4.785,9.247,7.003,13.711c10.908,21.957,22.186,44.662,50.962,49.347
		c13.146,2.149,31.531,13.238,34.647,23.784c1.612,5.455-1.537,11.817-9.359,18.91c-16.695,15.141-40.102,24.355-60.752,32.486
		C106.287,377.667,98.095,380.893,90.657,384.393z M217.698,446.754c-36.645-4.027-71.524-17.708-101.1-39.607
		c3.119-1.262,6.334-2.533,9.613-3.823c23.138-9.108,49.362-19.432,70.277-38.401c21.726-19.702,21.951-38.517,18.313-50.831
		c-7.705-26.081-39.439-42.435-59.523-45.717c-12.442-2.026-17.887-11.963-28.063-32.449c-2.33-4.69-4.74-9.54-7.478-14.625
		c-9.3-17.258-21.285-26.009-35.618-26.009c-15.925,0-29.824,11.175-41.309,22.099c-1.605,1.523-4.646,3.91-10.106,6.928
		c4.154-57.389,31.514-109.085,73.827-144.549c0.056,0.129,0.112,0.254,0.168,0.385c15.799,36.026,35.459,80.861,70.158,94.154
		c1.47,0.564,3.264,1.214,5.315,1.954c26.975,9.746,57.596,23.807,54.948,46.238c-2.985,25.267-3.078,56.557,19.577,81.96
		C226.588,350.246,218.842,406.858,217.698,446.754z"/>
	<path style="fill:#507C5C;" d="M235.056,510.067c-3.99,0-7.977-1.521-11.021-4.565c-6.086-6.086-6.086-15.955,0-22.043
		L351.79,355.707c6.091-6.086,15.956-6.085,22.043,0c6.086,6.086,6.086,15.955,0,22.041L246.078,505.501
		C243.034,508.546,239.042,510.067,235.056,510.067z"/>
</g>
</svg>